- 
http://www.Speed.Cd 
       
http://www.Speed.Cd       the fast  and The Hottest Private Tracker on the net

(((--Registration will be open on june every weekend--)))

Please Seed back to make the speed Faster!!!

------------------nfo--------------------------
-








































          
          
              
              
                    
                    
                    
                    

Orgasm.Inc.2009.DVDRiP.XviD-SiC

Poster:
[img]http://leetleech.org/images/28193488206953173327.jpg[/img]

IMDB Link:
http://www.imdb.com/title/tt1439562/

Description:
Extraordinary behind-the-scenes access reveals a drug company's fevered race to develop the first FDA-approved Viagra for women - and offers a humorous but sobering look inside the cash-fueled pharmaceutical industry. 

General
Complete name                    : Orgasm.Inc.2009.DVDRiP.XviD-SiC.avi
Format                           : AVI
Format/Info                      : Audio Video Interleave
File size                        : 1.37 GiB
Duration                         : 1h 23mn
Overall bit rate                 : 2 331 Kbps
Writing application              : VirtualDubMod 1.5.4.1 (build 2178/release)
Writing library                  : VirtualDubMod build 2178/release

Video
ID                               : 0
Format                           : MPEG-4 Visual
Format profile                   : Advanced Simple@L5
Format settings, BVOP            : 1
Format settings, QPel            : No
Format settings, GMC             : No warppoints
Format settings, Matrix          : Custom
Codec ID                         : XVID
Codec ID/Hint                    : XviD
Duration                         : 1h 23mn
Bit rate                         : 2 100 Kbps
Width                            : 624 pixels
Height                           : 464 pixels
Display aspect ratio             : 4:3
Frame rate                       : 29.970 fps
Color space                      : YUV
Chroma subsampling               : 4:2:0
Bit depth                        : 8 bits
Scan type                        : Progressive
Compression mode                 : Lossy
Bits/(Pixel*Frame)               : 0.242
Stream size                      : 1.23 GiB (90%)
Writing library                  : XviD 64

Audio
ID                               : 1
Format                           : AC-3
Format/Info                      : Audio Coding 3
Mode extension                   : CM (complete main)
Codec ID                         : 2000
Duration                         : 1h 23mn
Bit rate mode                    : Constant
Bit rate                         : 224 Kbps
Channel(s)                       : 2 channels
Channel positions                : Front: L R
Sampling rate                    : 48.0 KHz
Bit depth                        : 16 bits
Compression mode                 : Lossy
Stream size                      : 135 MiB (10%)
Alignment                        : Split accross interleaves
Interleave, duration             : 96 ms (2.88 video frames)
Interleave, preload duration     : 96 ms
Language                         : English


Screenshots:
[img]http://leetleech.org/images/00901591088123604514.png[/img]
[img]http://leetleech.org/images/51983027332530324575.png[/img]
[img]http://leetleech.org/images/11525952823227285694.png[/img]
[img]http://leetleech.org/images/88114471831811022082.png[/img]
[img]http://leetleech.org/images/67852732032491279230.png[/img]

Note: N/A

Encoder: thefuzz

Enjoy!

Respects to CaptainHomey, Cyanide, CM8, Rx, Pirate666, THC, ELEKTRI4KA, Killerhz, 
XtremE, PA, YeFsTe, Empire and everyone in the struggle...